<?xml version="1.0" encoding="UTF-8" standalone="no"?>
<!-- Generator: Adobe Illustrator 26.3.1, SVG Export Plug-In . SVG Version: 6.00 Build 0)  -->

<svg
   version="1.1"
   id="Layer_1"
   x="0px"
   y="0px"
   viewBox="0 0 1000 257.85855"
   xml:space="preserve"
   sodipodi:docname="Bank Jakarta.svg"
   width="1000"
   height="257.85855"
   inkscape:version="1.3.2 (091e20e, 2023-11-25, custom)"
   xmlns:inkscape="http://www.inkscape.org/namespaces/inkscape"
   xmlns:sodipodi="http://sodipodi.sourceforge.net/DTD/sodipodi-0.dtd"
   xmlns="http://www.w3.org/2000/svg"
   xmlns:svg="http://www.w3.org/2000/svg"><defs
   id="defs16" /><sodipodi:namedview
   id="namedview16"
   pagecolor="#ffffff"
   bordercolor="#666666"
   borderopacity="1.0"
   inkscape:showpageshadow="2"
   inkscape:pageopacity="0.0"
   inkscape:pagecheckerboard="0"
   inkscape:deskcolor="#d1d1d1"
   inkscape:zoom="1"
   inkscape:cx="511"
   inkscape:cy="132"
   inkscape:window-width="1920"
   inkscape:window-height="1094"
   inkscape:window-x="-11"
   inkscape:window-y="-11"
   inkscape:window-maximized="1"
   inkscape:current-layer="Layer_1" />
<style
   type="text/css"
   id="style1">
	.st0{fill:#FF3E17;}
	.st1{fill:#020000;}
</style>
<g
   id="g16"
   transform="matrix(2.4557957,0,0,2.4557957,-303.04519,0)">
	<g
   id="g15">
		<g
   id="g3">
			<path
   class="st0"
   d="m 165.2,23.7 c 1.4,-2.2 2.1,-4.7 2.1,-7.2 0,-2.5 -0.7,-5 -2,-7.1 l -5.1,-8.2 -34.7,55.6 c -1.4,2.2 -2.1,4.7 -2.1,7.2 0,2.5 0.7,5 2,7.1 l 5.1,8.2 z"
   id="path1" />
			<path
   class="st0"
   d="m 193.9,69.6 c 1.4,-2.2 2.1,-4.7 2.1,-7.2 0,-2.5 -0.7,-5 -2,-7.1 l -5.1,-8.2 -21.6,34.5 c -1.4,2.2 -2.1,4.7 -2.1,7.2 0,2.5 0.7,5 2,7.1 l 5.1,8.2 z"
   id="path2" />
			<path
   class="st0"
   d="m 179.6,32.3 -5.1,-8.2 -35.9,57.5 c -1.4,2.2 -2.1,4.7 -2.1,7.2 0,2.5 0.7,5 2,7.1 l 5.1,8.2 35.9,-57.5 c 1.4,-2.2 2.1,-4.7 2.1,-7.2 0,-2.5 -0.7,-5 -2,-7.1 z"
   id="path3" />
		</g>
		<g
   id="g7">
			<path
   class="st1"
   d="m 242.3,1.2 h 11.2 c 3,0 5.4,0.9 6.9,2.3 1.1,1.1 1.7,2.5 1.7,4.2 v 0.1 c 0,3.4 -2.1,5.2 -4.2,6.1 3.1,0.9 5.6,2.7 5.6,6.4 v 0.1 c 0,4.5 -3.8,7.2 -9.6,7.2 H 242.2 V 1.2 Z m 16.8,6.9 c 0,-2.6 -2.1,-4.3 -5.8,-4.3 h -8 v 9.1 h 7.8 c 3.5,0 6,-1.6 6,-4.8 z m -5.6,7.5 h -8.3 v 9.3 h 8.9 c 4,0 6.5,-1.8 6.5,-4.7 v -0.1 c -0.1,-2.9 -2.5,-4.5 -7.1,-4.5 z"
   id="path4" />
			<path
   class="st1"
   d="m 267.5,17.9 v 0 c 0,-6.4 4.6,-10.2 9.3,-10.2 3.6,0 6,2 7.5,4.1 V 8.1 h 2.9 v 19.5 h -2.9 v -3.9 c -1.6,2.3 -3.9,4.3 -7.5,4.3 -4.7,0 -9.3,-3.7 -9.3,-10.1 z m 16.8,-0.1 v 0 c 0,-4.6 -3.4,-7.6 -7,-7.6 -3.8,0 -6.9,2.8 -6.9,7.5 v 0.1 c 0,4.6 3.2,7.5 6.9,7.5 3.6,0.1 7,-3 7,-7.5 z"
   id="path5" />
			<path
   class="st1"
   d="m 293.2,8.1 h 2.9 v 3.4 c 1.3,-2.1 3.3,-3.8 6.7,-3.8 4.7,0 7.5,3.2 7.5,7.8 v 12.1 h -2.9 V 16.2 c 0,-3.6 -2,-5.9 -5.4,-5.9 -3.4,0 -5.8,2.4 -5.8,6.1 v 11.1 h -2.9 V 8.1 Z"
   id="path6" />
			<path
   class="st1"
   d="M 316.1,0 H 319 V 19 L 329.5,8 h 3.6 l -8.2,8.4 8.4,11.1 h -3.5 l -7,-9.1 -4,4 v 5.1 h -2.9 V 0 Z"
   id="path7" />
		</g>
		<g
   id="g14">
			<path
   class="st1"
   d="m 216.2,96.4 7.9,-8.8 c 3.3,3.6 6.4,5.7 10.4,5.7 4.7,0 7.7,-2.9 7.7,-9.5 V 47 h 12.9 v 37.4 c 0,6.8 -2,11.8 -5.4,15.3 -3.5,3.5 -8.7,5.3 -14.9,5.3 -8.8,0 -14.6,-4 -18.6,-8.6 z"
   id="path8" />
			<path
   class="st1"
   d="m 263.5,82.3 v -0.2 c 0,-14.6 9.5,-22.6 19.9,-22.6 6.6,0 10.7,3 13.6,6.5 v -5.7 h 12.4 V 104 H 297 v -6.3 c -3,4.1 -7.2,7.1 -13.6,7.1 C 273.2,105 263.5,97 263.5,82.3 Z m 33.7,0 v -0.2 c 0,-7.3 -4.8,-12.1 -10.6,-12.1 -5.8,0 -10.7,4.7 -10.7,12.1 v 0.2 c 0,7.3 4.9,12.1 10.7,12.1 5.8,0 10.6,-4.8 10.6,-12.1 z"
   id="path9" />
			<path
   class="st1"
   d="m 320.1,44.6 h 12.4 V 76.3 L 347,60.4 h 14.9 l -16.6,17.2 17.2,26.5 h -14.4 l -11.2,-18 -4.4,4.7 v 13.3 h -12.4 z"
   id="path10" />
			<path
   class="st1"
   d="m 364,82.3 v -0.2 c 0,-14.6 9.5,-22.6 19.9,-22.6 6.6,0 10.7,3 13.6,6.5 V 60.3 H 410 V 104 h -12.4 v -6.3 c -3,4.1 -7.2,7.1 -13.6,7.1 C 373.7,105 364,97 364,82.3 Z m 33.7,0 v -0.2 c 0,-7.3 -4.8,-12.1 -10.6,-12.1 -5.8,0 -10.7,4.7 -10.7,12.1 v 0.2 c 0,7.3 4.9,12.1 10.7,12.1 5.8,0 10.6,-4.8 10.6,-12.1 z"
   id="path11" />
			<path
   class="st1"
   d="m 420.7,60.4 h 12.4 v 8.8 c 2.5,-6 6.6,-10 14,-9.6 v 13 h -0.7 c -8.2,0 -13.3,5 -13.3,15.4 v 16.2 h -12.4 z"
   id="path12" />
			<path
   class="st1"
   d="M 456.4,91.7 V 71 h -5.2 V 60.4 h 5.2 V 49.2 h 12.4 v 11.2 h 10.3 V 71 h -10.3 v 18.7 c 0,2.9 1.2,4.2 4,4.2 2.3,0 4.3,-0.6 6.1,-1.6 v 10 c -2.6,1.6 -5.6,2.5 -9.8,2.5 -7.5,0.1 -12.7,-2.9 -12.7,-13.1 z"
   id="path13" />
			<path
   class="st1"
   d="m 484.7,82.3 v -0.2 c 0,-14.6 9.5,-22.6 19.9,-22.6 6.6,0 10.7,3 13.6,6.5 v -5.7 h 12.4 V 104 h -12.4 v -6.3 c -3,4.1 -7.2,7.1 -13.6,7.1 C 494.4,105 484.7,97 484.7,82.3 Z m 33.7,0 v -0.2 c 0,-7.3 -4.8,-12.1 -10.6,-12.1 -5.8,0 -10.7,4.7 -10.7,12.1 v 0.2 c 0,7.3 4.9,12.1 10.7,12.1 5.7,0 10.6,-4.8 10.6,-12.1 z"
   id="path14" />
		</g>
	</g>
</g>
</svg>
